<svg id="Capa_1" enable-background="new 0 0 512 512" height="512" viewBox="0 0 512 512" width="512" xmlns="http://www.w3.org/2000/svg" xmlns:xlink="http://www.w3.org/1999/xlink"><linearGradient id="SVGID_1_" gradientUnits="userSpaceOnUse" x1="256" x2="256" y1="512" y2="0"><stop offset="0" stop-color="#00b59c"/><stop offset="1" stop-color="#9cffac"/></linearGradient><g><g><path d="m256 150h120c8.284 0 15-6.716 15-15v-60c0-8.284-6.716-15-15-15h-120c-8.284 0-15 6.716-15 15v60c0 8.284 6.716 15 15 15zm15-60h90v30h-90zm165-90h-360c-8.284 0-15 6.716-15 15v300c0 8.284 6.716 15 15 15h15v15c0 24.813 20.187 45 45 45s45-20.187 45-45v-15h60v62.58c-17.459 6.192-30 22.865-30 42.42v47h-75c-8.284 0-15 6.716-15 15s6.716 15 15 15h240c8.284 0 15-6.716 15-15s-6.716-15-15-15h-75v-47c0-19.555-12.541-36.228-30-42.42v-62.58h165c8.284 0 15-6.716 15-15v-300c0-8.284-6.716-15-15-15zm-285 345c0 8.271-6.729 15-15 15s-15-6.729-15-15v-15h30zm15-105c-8.271 0-15-6.729-15-15v-120c0-8.271 6.729-15 15-15s15 6.729 15 15v120c0 8.271-6.729 15-15 15zm105 242h-30v-47c0-8.271 6.729-15 15-15s15 6.729 15 15zm150-182h-240v-32.58c17.459-6.192 30-22.865 30-42.42v-120c0-24.813-20.187-45-45-45s-45 20.187-45 45v120c0 19.555 12.541 36.228 30 42.42v32.58h-60v-270h330zm-165-90c8.284 0 15-6.716 15-15s-6.716-15-15-15-15 6.716-15 15 6.716 15 15 15zm60-30c-8.284 0-15 6.716-15 15s6.716 15 15 15 15-6.716 15-15-6.716-15-15-15zm60 0c-8.284 0-15 6.716-15 15s6.716 15 15 15 15-6.716 15-15-6.716-15-15-15zm0 60c-8.284 0-15 6.716-15 15s6.716 15 15 15 15-6.716 15-15-6.716-15-15-15zm-60 0c-8.284 0-15 6.716-15 15s6.716 15 15 15 15-6.716 15-15-6.716-15-15-15zm-60 30c8.284 0 15-6.716 15-15s-6.716-15-15-15-15 6.716-15 15 6.716 15 15 15z" fill="url(#SVGID_1_)"/></g></g></svg>